<mxfile host="65bd71144e">
    <diagram id="cAKzJsE4fb3bCF7Mvvnf" name="Page-1">
        <mxGraphModel dx="1194" dy="711" grid="1" gridSize="10" guides="1" tooltips="1" connect="1" arrows="1" fold="1" page="1" pageScale="1" pageWidth="827" pageHeight="1169" math="0" shadow="0">
            <root>
                <mxCell id="0"/>
                <mxCell id="1" parent="0"/>
                <mxCell id="12" value="" style="rounded=0;whiteSpace=wrap;html=1;labelPosition=center;verticalLabelPosition=top;align=center;verticalAlign=bottom;" vertex="1" parent="1">
                    <mxGeometry y="170" width="770" height="550" as="geometry"/>
                </mxCell>
                <mxCell id="6" value="Device Lab" style="rounded=0;whiteSpace=wrap;html=1;labelPosition=center;verticalLabelPosition=top;align=center;verticalAlign=bottom;strokeWidth=3;fillColor=#008a00;strokeColor=#005700;fontSize=17;fontColor=#000000;fontStyle=1" vertex="1" parent="1">
                    <mxGeometry x="100" y="470" width="590" height="180" as="geometry"/>
                </mxCell>
                <mxCell id="2" value="RaspberryPi 4B" style="rounded=1;whiteSpace=wrap;html=1;labelPosition=center;verticalLabelPosition=bottom;align=center;verticalAlign=top;strokeWidth=3;fillColor=#b0e3e6;strokeColor=#0e8088;fontColor=#000000;fontStyle=1" vertex="1" parent="1">
                    <mxGeometry x="138.1" y="510" width="200" height="110" as="geometry"/>
                </mxCell>
                <mxCell id="15" style="edgeStyle=none;html=1;entryX=0.5;entryY=0;entryDx=0;entryDy=0;strokeWidth=3;" edge="1" parent="1" source="5" target="13">
                    <mxGeometry relative="1" as="geometry">
                        <Array as="points">
                            <mxPoint x="388" y="290"/>
                        </Array>
                    </mxGeometry>
                </mxCell>
                <mxCell id="5" value="Jenkins Server" style="rounded=1;whiteSpace=wrap;html=1;strokeWidth=3;fillColor=#60a917;fontColor=#ffffff;strokeColor=#2D7600;fontStyle=1" vertex="1" parent="1">
                    <mxGeometry x="308.1" y="260" width="160" height="65.95" as="geometry"/>
                </mxCell>
                <mxCell id="9" value="Browser WPE/RDK" style="rounded=1;whiteSpace=wrap;html=1;strokeWidth=3;fillColor=#1ba1e2;fontColor=#000000;strokeColor=#006EAF;fontStyle=1" vertex="1" parent="1">
                    <mxGeometry x="168.1" y="530" width="140" height="70" as="geometry"/>
                </mxCell>
                <mxCell id="10" value="RaspberryPi 3B" style="rounded=1;whiteSpace=wrap;html=1;labelPosition=center;verticalLabelPosition=bottom;align=center;verticalAlign=top;strokeWidth=3;fillColor=#b0e3e6;strokeColor=#0e8088;fontColor=#000000;fontStyle=1" vertex="1" parent="1">
                    <mxGeometry x="440" y="510" width="200" height="110" as="geometry"/>
                </mxCell>
                <mxCell id="11" value="Browser WPE/RDK" style="rounded=1;whiteSpace=wrap;html=1;strokeWidth=3;fillColor=#1ba1e2;fontColor=#000000;strokeColor=#006EAF;fontStyle=1" vertex="1" parent="1">
                    <mxGeometry x="470" y="530" width="140" height="70" as="geometry"/>
                </mxCell>
                <mxCell id="16" style="edgeStyle=none;html=1;entryX=0.5;entryY=0;entryDx=0;entryDy=0;strokeWidth=3;exitX=0.25;exitY=1;exitDx=0;exitDy=0;" edge="1" parent="1" source="13" target="9">
                    <mxGeometry relative="1" as="geometry">
                        <Array as="points">
                            <mxPoint x="353" y="450"/>
                            <mxPoint x="240" y="450"/>
                        </Array>
                    </mxGeometry>
                </mxCell>
                <mxCell id="17" style="edgeStyle=none;html=1;entryX=0.5;entryY=0;entryDx=0;entryDy=0;strokeWidth=3;exitX=0.75;exitY=1;exitDx=0;exitDy=0;" edge="1" parent="1" source="13" target="11">
                    <mxGeometry relative="1" as="geometry">
                        <Array as="points">
                            <mxPoint x="423" y="450"/>
                            <mxPoint x="540" y="450"/>
                        </Array>
                    </mxGeometry>
                </mxCell>
                <mxCell id="13" value="Cross-Driver Server" style="rounded=1;whiteSpace=wrap;html=1;strokeWidth=3;fillColor=#6a00ff;fontColor=#ffffff;strokeColor=#3700CC;fontStyle=1" vertex="1" parent="1">
                    <mxGeometry x="318.1" y="360" width="140" height="70" as="geometry"/>
                </mxCell>
            </root>
        </mxGraphModel>
    </diagram>
</mxfile>